# xmcd
#
# Track frame offsets:
#	150
#	11765
#	24583
#	39075
#	49024
#	59690
#	71690
#
# Disc length: 1114 seconds
#
# Revision: 0
# Processed by: cddbd v1.5.2PL0 Copyright (c) Steve Scherf et al.
# Submitted via: EasyCDDAExtractor 15.0.0.1
#
DISCID=58045807
DTITLE=Los Lobos - "...and a time to dance".
DYEAR=1983
DGENRE=Country
TTITLE0=Let's Say Goodnight
TTITLE1=Walking Song
TTITLE2=Anselma
TTITLE3=Come On Let's Go
TTITLE4=How Much Can I Do?
TTITLE5=Why do you do
TTITLE6=Ay Te Dejo En San Antonio
EXTD=
EXTT0=
EXTT1=
EXTT2=
EXTT3=
EXTT4=
EXTT5=
EXTT6=
PLAYORDER=
